<?xml version="1.0" encoding="UTF-8" standalone="no"?>
<svg
   xmlns:dc="http://purl.org/dc/elements/1.1/"
   xmlns:cc="http://creativecommons.org/ns#"
   xmlns:rdf="http://www.w3.org/1999/02/22-rdf-syntax-ns#"
   xmlns:svg="http://www.w3.org/2000/svg"
   xmlns="http://www.w3.org/2000/svg"
   xmlns:xlink="http://www.w3.org/1999/xlink"
   xmlns:sodipodi="http://sodipodi.sourceforge.net/DTD/sodipodi-0.dtd"
   xmlns:inkscape="http://www.inkscape.org/namespaces/inkscape"
   version="1.1"
   x="0px"
   y="0px"
   viewBox="0 0 110 70"
   xml:space="preserve"
   id="svg2"
   inkscape:version="0.91 r13725"
   sodipodi:docname="comet2.svg"
   width="110"
   height="70"><metadata
     id="metadata42"><rdf:RDF><cc:Work
         rdf:about=""><dc:format>image/svg+xml</dc:format><dc:type
           rdf:resource="http://purl.org/dc/dcmitype/StillImage" /><dc:title></dc:title></cc:Work></rdf:RDF></metadata><defs
     id="defs40"><linearGradient
       inkscape:collect="always"
       id="linearGradient4545"><stop
         style="stop-color:#19b1bd;stop-opacity:1;"
         offset="0"
         id="stop4547" /><stop
         style="stop-color:#19b1bd;stop-opacity:0;"
         offset="1"
         id="stop4549" /></linearGradient><linearGradient
       inkscape:collect="always"
       id="blue-7"><stop
         style="stop-color:#20e9f3;stop-opacity:1;"
         offset="0"
         id="stop4451" /><stop
         style="stop-color:#20e9f3;stop-opacity:0;"
         offset="1"
         id="stop4453" /></linearGradient><linearGradient
       inkscape:collect="always"
       xlink:href="#blue-7"
       id="linearGradient4455"
       x1="18.168471"
       y1="30.225946"
       x2="82.128471"
       y2="30.225946"
       gradientUnits="userSpaceOnUse" /><linearGradient
       inkscape:collect="always"
       xlink:href="#blue-7"
       id="linearGradient4471"
       x1="65.092667"
       y1="10.330375"
       x2="81.092667"
       y2="10.330375"
       gradientUnits="userSpaceOnUse" /><linearGradient
       inkscape:collect="always"
       xlink:href="#blue-7"
       id="linearGradient4473"
       x1="83.265007"
       y1="10.12064"
       x2="89.265007"
       y2="10.12064"
       gradientUnits="userSpaceOnUse" /><linearGradient
       inkscape:collect="always"
       xlink:href="#blue-7"
       id="linearGradient4475"
       x1="79.280037"
       y1="15.154282"
       x2="85.280037"
       y2="15.154282"
       gradientUnits="userSpaceOnUse" /><linearGradient
       inkscape:collect="always"
       xlink:href="#blue-7"
       id="linearGradient4477"
       x1="57.13007"
       y1="15.154282"
       x2="77.280037"
       y2="15.154282"
       gradientUnits="userSpaceOnUse" /><linearGradient
       inkscape:collect="always"
       xlink:href="#blue-7"
       id="linearGradient4479"
       x1="46"
       y1="15"
       x2="52"
       y2="15"
       gradientUnits="userSpaceOnUse" /><linearGradient
       inkscape:collect="always"
       xlink:href="#blue-7"
       id="linearGradient4481"
       x1="52"
       y1="10"
       x2="58"
       y2="10"
       gradientUnits="userSpaceOnUse" /><linearGradient
       inkscape:collect="always"
       xlink:href="#blue-7"
       id="linearGradient4483"
       x1="38"
       y1="5"
       x2="44"
       y2="5"
       gradientUnits="userSpaceOnUse" /><linearGradient
       inkscape:collect="always"
       xlink:href="#blue-7"
       id="linearGradient4485"
       x1="20"
       y1="5"
       x2="36"
       y2="5"
       gradientUnits="userSpaceOnUse" /><linearGradient
       inkscape:collect="always"
       xlink:href="#blue-7"
       id="linearGradient4487"
       x1="26"
       y1="10"
       x2="50"
       y2="10"
       gradientUnits="userSpaceOnUse" /><linearGradient
       inkscape:collect="always"
       xlink:href="#blue-7"
       id="linearGradient4495"
       x1="91.497108"
       y1="44.831791"
       x2="97.497108"
       y2="44.831791"
       gradientUnits="userSpaceOnUse" /><linearGradient
       inkscape:collect="always"
       xlink:href="#blue-7"
       id="linearGradient4497"
       x1="65.362167"
       y1="49.865433"
       x2="85.512138"
       y2="49.865433"
       gradientUnits="userSpaceOnUse" /><linearGradient
       inkscape:collect="always"
       xlink:href="#blue-7"
       id="linearGradient4499"
       x1="57.497105"
       y1="44.831791"
       x2="89.497108"
       y2="44.831791"
       gradientUnits="userSpaceOnUse" /><linearGradient
       inkscape:collect="always"
       xlink:href="#blue-7"
       id="linearGradient4501"
       x1="46"
       y1="45"
       x2="52"
       y2="45"
       gradientUnits="userSpaceOnUse" /><linearGradient
       inkscape:collect="always"
       xlink:href="#blue-7"
       id="linearGradient4503"
       x1="52"
       y1="50"
       x2="58"
       y2="50"
       gradientUnits="userSpaceOnUse" /><linearGradient
       inkscape:collect="always"
       xlink:href="#blue-7"
       id="linearGradient4505"
       x1="38"
       y1="55"
       x2="44"
       y2="55"
       gradientUnits="userSpaceOnUse" /><linearGradient
       inkscape:collect="always"
       xlink:href="#blue-7"
       id="linearGradient4507"
       x1="20"
       y1="55"
       x2="36"
       y2="55"
       gradientUnits="userSpaceOnUse" /><linearGradient
       inkscape:collect="always"
       xlink:href="#blue-7"
       id="linearGradient4509"
       x1="26"
       y1="50"
       x2="50"
       y2="50"
       gradientUnits="userSpaceOnUse" /><linearGradient
       inkscape:collect="always"
       xlink:href="#blue-7"
       id="linearGradient4511"
       x1="12"
       y1="45"
       x2="44"
       y2="45"
       gradientUnits="userSpaceOnUse" /><linearGradient
       inkscape:collect="always"
       xlink:href="#blue-7"
       id="linearGradient4513"
       x1="12"
       y1="15"
       x2="44"
       y2="15"
       gradientUnits="userSpaceOnUse" /><linearGradient
       inkscape:collect="always"
       xlink:href="#blue-7"
       id="linearGradient4517"
       x1="74.171043"
       y1="22.337708"
       x2="96.628098"
       y2="22.337708"
       gradientUnits="userSpaceOnUse" /><linearGradient
       inkscape:collect="always"
       xlink:href="#blue-7"
       id="linearGradient4519"
       x1="82.03611"
       y1="27.371349"
       x2="103.33962"
       y2="27.371349"
       gradientUnits="userSpaceOnUse" /><linearGradient
       inkscape:collect="always"
       xlink:href="#blue-7"
       id="linearGradient4529"
       x1="96.373444"
       y1="38.854343"
       x2="102.37345"
       y2="38.854343"
       gradientUnits="userSpaceOnUse" /><linearGradient
       inkscape:collect="always"
       xlink:href="#blue-7"
       id="linearGradient4531"
       x1="74.22348"
       y1="38.854343"
       x2="94.373444"
       y2="38.854343"
       gradientUnits="userSpaceOnUse" /><linearGradient
       inkscape:collect="always"
       xlink:href="#blue-7"
       id="linearGradient4533"
       x1="82.186081"
       y1="34.030437"
       x2="98.186081"
       y2="34.030437"
       gradientUnits="userSpaceOnUse" /><radialGradient
       inkscape:collect="always"
       xlink:href="#linearGradient4545"
       id="radialGradient4551"
       cx="11"
       cy="30"
       fx="11"
       fy="30"
       r="5"
       gradientUnits="userSpaceOnUse" /></defs><sodipodi:namedview
     pagecolor="#ffffff"
     bordercolor="#666666"
     borderopacity="1"
     objecttolerance="10"
     gridtolerance="10"
     guidetolerance="10"
     inkscape:pageopacity="0"
     inkscape:pageshadow="2"
     inkscape:window-width="3200"
     inkscape:window-height="1767"
     id="namedview38"
     showgrid="false"
     inkscape:zoom="19.07168"
     inkscape:cx="55.732012"
     inkscape:cy="40.00332"
     inkscape:window-x="0"
     inkscape:window-y="33"
     inkscape:window-maximized="1"
     inkscape:current-layer="svg2" /><path
     d="M 1,7 2.586,7 5,9.414 5,11 c 0,0.552 0.448,1 1,1 0.552,0 1,-0.448 1,-1 L 7,9.414 9.415,7 11,7 C 11.552,7 12,6.552 12,6 12,5.448 11.552,5 11,5 L 9.415,5 7,2.586 7,1 C 7,0.448 6.552,0 6,0 5.448,0 5,0.448 5,1 L 5,2.586 2.586,5 1,5 C 0.448,5 0,5.448 0,6 0,6.552 0.448,7 1,7 Z"
     id="path8"
     inkscape:connector-curvature="0"
     style="fill:#d2f4f4;fill-opacity:1" /><path
     d="m 13,16 30,0 c 0.552,0 1,-0.448 1,-1 0,-0.552 -0.448,-1 -1,-1 l -30,0 c -0.552,0 -1,0.448 -1,1 0,0.552 0.448,1 1,1 z"
     id="path10"
     inkscape:connector-curvature="0"
     style="fill-opacity:1.0;fill:url(#linearGradient4513)" /><path
     d="m 26,10 c 0,0.552 0.448,1 1,1 l 22,0 c 0.552,0 1,-0.448 1,-1 C 50,9.448 49.552,9 49,9 L 27,9 c -0.552,0 -1,0.448 -1,1 z"
     id="path12"
     inkscape:connector-curvature="0"
     style="fill-opacity:1.0;fill:url(#linearGradient4487)" /><path
     d="M 21,6 35,6 C 35.552,6 36,5.552 36,5 36,4.448 35.552,4 35,4 L 21,4 c -0.552,0 -1,0.448 -1,1 0,0.552 0.448,1 1,1 z"
     id="path14"
     inkscape:connector-curvature="0"
     style="fill-opacity:1.0;fill:url(#linearGradient4485)" /><path
     d="m 39,6 4,0 C 43.552,6 44,5.552 44,5 44,4.448 43.552,4 43,4 l -4,0 c -0.552,0 -1,0.448 -1,1 0,0.552 0.448,1 1,1 z"
     id="path16"
     inkscape:connector-curvature="0"
     style="fill-opacity:1.0;fill:url(#linearGradient4483)" /><path
     d="m 53,11 4,0 c 0.552,0 1,-0.448 1,-1 0,-0.552 -0.448,-1 -1,-1 l -4,0 c -0.552,0 -1,0.448 -1,1 0,0.552 0.448,1 1,1 z"
     id="path18"
     inkscape:connector-curvature="0"
     style="fill-opacity:1.0;fill:url(#linearGradient4481)" /><path
     d="m 46,15 c 0,0.552 0.448,1 1,1 l 4,0 c 0.552,0 1,-0.448 1,-1 0,-0.552 -0.448,-1 -1,-1 l -4,0 c -0.552,0 -1,0.448 -1,1 z"
     id="path20"
     inkscape:connector-curvature="0"
     style="fill-opacity:1.0;fill:url(#linearGradient4479)" /><path
     d="m 44,45 c 0,-0.552 -0.448,-1 -1,-1 l -30,0 c -0.552,0 -1,0.448 -1,1 0,0.552 0.448,1 1,1 l 30,0 c 0.552,0 1,-0.448 1,-1 z"
     id="path22"
     inkscape:connector-curvature="0"
     style="fill-opacity:1.0;fill:url(#linearGradient4511)" /><path
     d="m 49,49 -22,0 c -0.552,0 -1,0.448 -1,1 0,0.552 0.448,1 1,1 l 22,0 c 0.552,0 1,-0.448 1,-1 0,-0.552 -0.448,-1 -1,-1 z"
     id="path24"
     inkscape:connector-curvature="0"
     style="fill-opacity:1.0;fill:url(#linearGradient4509)" /><path
     d="m 35,54 -14,0 c -0.552,0 -1,0.448 -1,1 0,0.552 0.448,1 1,1 l 14,0 c 0.552,0 1,-0.448 1,-1 0,-0.552 -0.448,-1 -1,-1 z"
     id="path26"
     inkscape:connector-curvature="0"
     style="fill-opacity:1.0;fill:url(#linearGradient4507)" /><path
     d="m 43,54 -4,0 c -0.552,0 -1,0.448 -1,1 0,0.552 0.448,1 1,1 l 4,0 c 0.552,0 1,-0.448 1,-1 0,-0.552 -0.448,-1 -1,-1 z"
     id="path28"
     inkscape:connector-curvature="0"
     style="fill-opacity:1.0;fill:url(#linearGradient4505)" /><path
     d="m 57,49 -4,0 c -0.552,0 -1,0.448 -1,1 0,0.552 0.448,1 1,1 l 4,0 c 0.552,0 1,-0.448 1,-1 0,-0.552 -0.448,-1 -1,-1 z"
     id="path30"
     inkscape:connector-curvature="0"
     style="fill-opacity:1.0;fill:url(#linearGradient4503)" /><path
     d="m 51,44 -4,0 c -0.552,0 -1,0.448 -1,1 0,0.552 0.448,1 1,1 l 4,0 c 0.552,0 1,-0.448 1,-1 0,-0.552 -0.448,-1 -1,-1 z"
     id="path32"
     inkscape:connector-curvature="0"
     style="fill-opacity:1.0;fill:url(#linearGradient4501)" /><path
     d="m 11,25 c -2.757,0 -5,2.243 -5,5 0,2.757 2.243,5 5,5 2.757,0 5,-2.243 5,-5 0,-2.757 -2.243,-5 -5,-5 z m -0.293,3.707 -1,1 C 9.512,29.902 9.256,30 9,30 8.744,30 8.488,29.902 8.293,29.707 c -0.391,-0.391 -0.391,-1.023 0,-1.414 l 1,-1 c 0.39,-0.391 1.024,-0.391 1.414,0 0.39,0.391 0.39,1.023 0,1.414 z m 3,3 -1,1 C 12.512,32.902 12.256,33 12,33 c -0.256,0 -0.512,-0.098 -0.707,-0.293 -0.391,-0.391 -0.391,-1.023 0,-1.414 l 1,-1 c 0.39,-0.391 1.024,-0.391 1.414,0 0.39,0.391 0.39,1.023 0,1.414 z"
     id="path34"
     inkscape:connector-curvature="0"
     style="fill-opacity:1;fill:url(#radialGradient4551)" /><path
     d="m 65.991858,50.865434 18.890595,0 c 0.347587,0 0.629687,-0.448 0.629687,-1 0,-0.552 -0.2821,-1 -0.629687,-1 l -18.890595,0 c -0.347587,0 -0.629687,0.448 -0.629687,1 0,0.552 0.2821,1 0.629687,1 z"
     id="path10-7"
     inkscape:connector-curvature="0"
     style="fill-opacity:1.0;fill:url(#linearGradient4497)" /><path
     d="m 58.497105,45.831792 30,0 c 0.552,0 1,-0.448 1,-1 0,-0.552 -0.448,-1 -1,-1 l -30,0 c -0.552,0 -1,0.448 -1,1 0,0.552 0.448,1 1,1 z"
     id="path10-3"
     inkscape:connector-curvature="0"
     style="fill-opacity:1.0;fill:url(#linearGradient4499)" /><path
     d="m 91.497105,44.831792 c 0,0.552 0.448,1 1,1 l 4,0 c 0.552,0 1,-0.448 1,-1 0,-0.552 -0.448,-1 -1,-1 l -4,0 c -0.552,0 -1,0.448 -1,1 z"
     id="path20-56"
     inkscape:connector-curvature="0"
     style="fill-opacity:1.0;fill:url(#linearGradient4495)" /><path
     d="m 57.759757,16.154282 18.890595,0 c 0.347587,0 0.629687,-0.448 0.629687,-1 0,-0.552 -0.2821,-1 -0.629687,-1 l -18.890595,0 c -0.347587,0 -0.629687,0.448 -0.629687,1 0,0.552 0.2821,1 0.629687,1 z"
     id="path10-7-2"
     inkscape:connector-curvature="0"
     style="fill-opacity:1.0;fill:url(#linearGradient4477)" /><path
     d="m 79.280039,15.154282 c 0,0.552 0.448,1 1,1 l 4,0 c 0.552,0 1,-0.448 1,-1 0,-0.552 -0.448,-1 -1,-1 l -4,0 c -0.552,0 -1,0.448 -1,1 z"
     id="path20-5-9"
     inkscape:connector-curvature="0"
     style="fill-opacity:1.0;fill:url(#linearGradient4475)" /><path
     d="m 83.265004,10.12064 c 0,0.552 0.448,1 1,1 l 4,0 c 0.552,0 1,-0.448 1,-1 0,-0.5520004 -0.448,-1.0000004 -1,-1.0000004 l -4,0 c -0.552,0 -1,0.448 -1,1.0000004 z"
     id="path20-56-1"
     inkscape:connector-curvature="0"
     style="fill-opacity:1.0;fill:url(#linearGradient4473)" /><path
     d="m 66.09267,11.330375 14,0 c 0.552,0 1,-0.448 1,-1 0,-0.5520002 -0.448,-1.0000002 -1,-1.0000002 l -14,0 c -0.552,0 -1,0.448 -1,1.0000002 0,0.552 0.448,1 1,1 z"
     id="path14-2"
     inkscape:connector-curvature="0"
     style="fill-opacity:1.0;fill:url(#linearGradient4471)" /><path
     inkscape:connector-curvature="0"
     d="m 18.168471,19.061892 0,5.03125 c 0.08417,-0.0084 0.160613,-0.03015 0.24887,-0.02957 l 15.539303,0.101912 c 0.857773,0.0056 1.553936,0.458191 1.553936,1.010191 0,0.552 -0.696163,0.995434 -1.553936,0.989809 L 18.417341,26.063572 c -0.08832,-5.79e-4 -0.164616,-0.02318 -0.24887,-0.03283 l 0,8.0625 c 0.08417,-0.0084 0.160613,-0.03015 0.24887,-0.02957 l 23.308952,0.152868 c 0.857771,0.0056 1.553936,0.458191 1.553936,1.010191 0,0.552 -0.696165,0.995434 -1.553936,0.989809 L 18.417341,36.063672 c -0.08832,-5.79e-4 -0.164616,-0.02318 -0.24887,-0.03283 l 0,5.03125 49.974631,0.32775 c 2.570206,0.01686 4.661792,-1.315427 4.661792,-2.969427 0,-1.654 -2.091586,-3.013717 -4.661792,-3.030573 l -6.215732,-0.04077 c -0.856203,-0.0056 -1.553909,-0.459191 -1.553909,-1.010191 0,-0.551 0.697706,-0.995424 1.553909,-0.989809 l 15.539309,0.101912 c 2.570206,0.01686 4.661792,-1.315427 4.661792,-2.969427 0,-1.654 -2.091586,-3.013717 -4.661792,-3.030573 L 44.83415,27.236969 c -0.8562,-0.0056 -1.553921,-0.459191 -1.553921,-1.010191 0,-0.551 0.697721,-0.995424 1.553921,-0.989809 l 23.308952,0.152868 c 2.570206,0.01686 4.661792,-1.315427 4.661792,-2.969427 0,-1.654 -2.091586,-3.013717 -4.661792,-3.030573 l -49.974631,-0.32775 z m 3.356734,10.022014 15.53931,0.101912 c 0.857765,0.0056 1.553909,0.458191 1.553909,1.010191 0,0.552 -0.696144,0.995435 -1.553909,0.989809 l -15.53931,-0.101912 c -0.857784,-0.0056 -1.553922,-0.458191 -1.553922,-1.010191 0,-0.552 0.696138,-0.995434 1.553922,-0.989809 z m 26.416814,5.17325 4.661787,0.03057 c 0.857777,0.0056 1.553926,0.458191 1.553926,1.010191 0,0.552 -0.696149,0.995434 -1.553926,0.989809 l -4.661787,-0.03057 c -0.857777,-0.0056 -1.553933,-0.458191 -1.553933,-1.010191 0,-0.552 0.696156,-0.995434 1.553933,-0.989809 z"
     id="path36-0"
     style="fill:url(#linearGradient4455);fill-opacity:1" /><path
     inkscape:connector-curvature="0"
     d="m 11.165842,19.045471 c -6.0649997,0 -10.9999997,4.935 -10.9999997,11 0,6.065 4.935,11 10.9999997,11 l 7.125,0 0,-5.54102 c -0.0736,-0.13925 -0.125,-0.29062 -0.125,-0.45898 0,-0.16836 0.0514,-0.31973 0.125,-0.45899 l 0,-9.08203 c -0.0736,-0.13925 -0.125,-0.29062 -0.125,-0.45898 0,-0.16836 0.0514,-0.31973 0.125,-0.45899 l 0,-5.54101 -7.125,0 z m 0,4 c 3.86,0 7,3.14 7,7 0,3.86 -3.14,7 -7,7 -3.8599997,0 -6.9999997,-3.14 -6.9999997,-7 0,-3.86 3.14,-7 6.9999997,-7 z"
     id="path36"
     style="fill-opacity:1;fill:#20e9f3" /><path
     d="m 74.853165,39.854343 18.890595,0 c 0.347587,0 0.629687,-0.448 0.629687,-1 0,-0.552 -0.2821,-1 -0.629687,-1 l -18.890595,0 c -0.347587,0 -0.629687,0.448 -0.629687,1 0,0.552 0.2821,1 0.629687,1 z"
     id="path10-7-2-9"
     inkscape:connector-curvature="0"
     style="fill-opacity:1.0;fill:url(#linearGradient4531)" /><path
     d="m 96.373447,38.854343 c 0,0.552 0.448,1 1,1 l 4.000003,0 c 0.552,0 1,-0.448 1,-1 0,-0.552 -0.448,-1 -1,-1 l -4.000003,0 c -0.552,0 -1,0.448 -1,1 z"
     id="path20-5-9-3"
     inkscape:connector-curvature="0"
     style="fill-opacity:1.0;fill:url(#linearGradient4529)" /><path
     d="m 83.186078,35.030436 14,0 c 0.552,0 1,-0.448 1,-1 0,-0.552 -0.448,-1 -1,-1 l -14,0 c -0.552,0 -1,0.448 -1,1 0,0.552 0.448,1 1,1 z"
     id="path14-2-0"
     inkscape:connector-curvature="0"
     style="fill-opacity:1.0;fill:url(#linearGradient4533)" /><path
     d="m 82.701844,28.371349 19.972036,0 c 0.36749,0 0.66574,-0.448 0.66574,-1 0,-0.552 -0.29825,-1 -0.66574,-1 l -19.972036,0 c -0.367485,0 -0.665735,0.448 -0.665735,1 0,0.552 0.29825,1 0.665735,1 z"
     id="path10-7-6"
     inkscape:connector-curvature="0"
     style="fill-opacity:1.0;fill:url(#linearGradient4519)" /><path
     d="m 74.872826,23.337707 21.053486,0 c 0.387384,0 0.701783,-0.448 0.701783,-1 0,-0.552 -0.314399,-1 -0.701783,-1 l -21.053486,0 c -0.387384,0 -0.701783,0.448 -0.701783,1 0,0.552 0.314399,1 0.701783,1 z"
     id="path10-3-6"
     inkscape:connector-curvature="0"
     style="fill-opacity:1.0;fill:url(#linearGradient4517)" /></svg>