<svg xmlns="http://www.w3.org/2000/svg" xmlns:xlink="http://www.w3.org/1999/xlink" version="1.1" x="0px" y="0px" viewBox="0 0 60 70" style="enable-background:new 0 0 60 56;" xml:space="preserve"><g><g><path d="M1,7h1.586L5,9.414V11c0,0.552,0.448,1,1,1s1-0.448,1-1V9.414L9.415,7H11c0.552,0,1-0.448,1-1s-0.448-1-1-1H9.415L7,2.586    V1c0-0.552-0.448-1-1-1S5,0.448,5,1v1.586L2.586,5H1C0.448,5,0,5.448,0,6S0.448,7,1,7z"/><path d="M13,16h30c0.552,0,1-0.448,1-1s-0.448-1-1-1H13c-0.552,0-1,0.448-1,1S12.448,16,13,16z"/><path d="M26,10c0,0.552,0.448,1,1,1h22c0.552,0,1-0.448,1-1s-0.448-1-1-1H27C26.448,9,26,9.448,26,10z"/><path d="M21,6h14c0.552,0,1-0.448,1-1s-0.448-1-1-1H21c-0.552,0-1,0.448-1,1S20.448,6,21,6z"/><path d="M39,6h4c0.552,0,1-0.448,1-1s-0.448-1-1-1h-4c-0.552,0-1,0.448-1,1S38.448,6,39,6z"/><path d="M53,11h4c0.552,0,1-0.448,1-1s-0.448-1-1-1h-4c-0.552,0-1,0.448-1,1S52.448,11,53,11z"/><path d="M46,15c0,0.552,0.448,1,1,1h4c0.552,0,1-0.448,1-1s-0.448-1-1-1h-4C46.448,14,46,14.448,46,15z"/><path d="M44,45c0-0.552-0.448-1-1-1H13c-0.552,0-1,0.448-1,1s0.448,1,1,1h30C43.552,46,44,45.552,44,45z"/><path d="M49,49H27c-0.552,0-1,0.448-1,1s0.448,1,1,1h22c0.552,0,1-0.448,1-1S49.552,49,49,49z"/><path d="M35,54H21c-0.552,0-1,0.448-1,1s0.448,1,1,1h14c0.552,0,1-0.448,1-1S35.552,54,35,54z"/><path d="M43,54h-4c-0.552,0-1,0.448-1,1s0.448,1,1,1h4c0.552,0,1-0.448,1-1S43.552,54,43,54z"/><path d="M57,49h-4c-0.552,0-1,0.448-1,1s0.448,1,1,1h4c0.552,0,1-0.448,1-1S57.552,49,57,49z"/><path d="M51,44h-4c-0.552,0-1,0.448-1,1s0.448,1,1,1h4c0.552,0,1-0.448,1-1S51.552,44,51,44z"/><path d="M11,25c-2.757,0-5,2.243-5,5c0,2.757,2.243,5,5,5s5-2.243,5-5S13.757,25,11,25z M10.707,28.707l-1,1    C9.512,29.902,9.256,30,9,30s-0.512-0.098-0.707-0.293c-0.391-0.391-0.391-1.023,0-1.414l1-1c0.39-0.391,1.024-0.391,1.414,0    C11.097,27.684,11.097,28.316,10.707,28.707z M13.707,31.707l-1,1C12.512,32.902,12.256,33,12,33s-0.512-0.098-0.707-0.293    c-0.391-0.391-0.391-1.023,0-1.414l1-1c0.39-0.391,1.024-0.391,1.414,0C14.097,30.684,14.097,31.316,13.707,31.707z"/><path d="M57,27H36c-0.551,0-1-0.449-1-1s0.449-1,1-1h15c1.654,0,3-1.346,3-3s-1.346-3-3-3H11C4.935,19,0,23.935,0,30    c0,6.065,4.935,11,11,11h40c1.654,0,3-1.346,3-3s-1.346-3-3-3h-4c-0.551,0-1-0.449-1-1s0.449-1,1-1h10c1.654,0,3-1.346,3-3    S58.654,27,57,27z M32,30c0,0.552-0.448,1-1,1H21c-0.552,0-1-0.448-1-1s0.448-1,1-1h10C31.552,29,32,29.448,32,30z M19,24h10    c0.552,0,1,0.448,1,1s-0.448,1-1,1H19c-0.552,0-1-0.448-1-1S18.448,24,19,24z M11,37c-3.86,0-7-3.14-7-7s3.14-7,7-7s7,3.14,7,7    S14.86,37,11,37z M34,36H19c-0.552,0-1-0.448-1-1s0.448-1,1-1h15c0.552,0,1,0.448,1,1S34.552,36,34,36z M41,36h-3    c-0.552,0-1-0.448-1-1s0.448-1,1-1h3c0.552,0,1,0.448,1,1S41.552,36,41,36z"/></g></g></svg>