<svg xmlns="http://www.w3.org/2000/svg" xmlns:xlink="http://www.w3.org/1999/xlink" version="1.1" x="0px" y="0px" viewBox="0 0 50 62.5" enable-background="new 0 0 50 50" xml:space="preserve"><g><path fill="#000000" d="M30.367,14.655L4.146,0.96l7.404,28.506c-0.058,0.573-0.174,1.135-0.174,1.729   c0,9.242,7.518,16.767,16.761,16.767c9.244,0,16.762-7.524,16.762-16.767C44.902,22.712,38.554,15.76,30.367,14.655z M10.724,9.235   l11.889,6.207c-3.556,1.255-6.565,3.632-8.572,6.755L10.724,9.235z M28.142,43.676c-6.879,0-12.475-5.6-12.475-12.48   c0-6.881,5.596-12.476,12.475-12.476c0.317,0,0.618,0.071,0.929,0.091l0,0l0,0c6.438,0.486,11.548,5.822,11.548,12.385   C40.618,38.076,35.022,43.676,28.142,43.676z"/></g></svg>