<?xml version="1.0" encoding="UTF-8" standalone="no"?>
<svg
   xmlns:dc="http://purl.org/dc/elements/1.1/"
   xmlns:cc="http://creativecommons.org/ns#"
   xmlns:rdf="http://www.w3.org/1999/02/22-rdf-syntax-ns#"
   xmlns:svg="http://www.w3.org/2000/svg"
   xmlns="http://www.w3.org/2000/svg"
   xmlns:sodipodi="http://sodipodi.sourceforge.net/DTD/sodipodi-0.dtd"
   xmlns:inkscape="http://www.inkscape.org/namespaces/inkscape"
   version="1.1"
   x="0px"
   y="0px"
   viewBox="0 0 100 125"
   style="enable-background:new 0 0 100 100;"
   xml:space="preserve"
   id="svg2"
   inkscape:version="0.91 r13725"
   sodipodi:docname="galaxy2.svg"><metadata
     id="metadata18"><rdf:RDF><cc:Work
         rdf:about=""><dc:format>image/svg+xml</dc:format><dc:type
           rdf:resource="http://purl.org/dc/dcmitype/StillImage" /></cc:Work></rdf:RDF></metadata><defs
     id="defs16" /><sodipodi:namedview
     pagecolor="#ffffff"
     bordercolor="#666666"
     borderopacity="1"
     objecttolerance="10"
     gridtolerance="10"
     guidetolerance="10"
     inkscape:pageopacity="0"
     inkscape:pageshadow="2"
     inkscape:window-width="3200"
     inkscape:window-height="1767"
     id="namedview14"
     showgrid="false"
     inkscape:zoom="10.680141"
     inkscape:cx="22.798501"
     inkscape:cy="65.345486"
     inkscape:window-x="0"
     inkscape:window-y="33"
     inkscape:window-maximized="1"
     inkscape:current-layer="svg2" /><path
     d="M55.59578,44.90049c4.23868,0.05334,5.11475,2.38895,1.95682,5.21677  c-3.15793,2.82779-9.15405,5.07693-13.39273,5.02362c-4.23865-0.05334-5.11472-2.38898-1.95679-5.21677  S51.35714,44.84718,55.59578,44.90049z"
     id="path4"
     style="fill:#b7e8f4;fill-opacity:1" /><path
     d="M59.40084,52.00926c4.81118-2.73462,9.87173-7.91232,7.4927-10.72867  c-1.91528-2.26736-7.64563-1.81232-9.55951-1.66034c-7.20935,0.57251-14.28207,3.51465-16.40668,4.41364  c-6.56921,2.77963-10.60718,5.79755-12.15122,7.03391c-7.33463,5.87289-6.72815,10.3855-7.05713,10.46494  c-0.33142,0.08002-1.57785-4.3475,5.38208-10.40048c4.83453-4.20456,11.24146-7.11954,12.96695-7.87918  c2.39676-1.05518,10.30066-4.36917,18.58258-5.15625c2.21588-0.2106,9.23822-0.87799,11.67843,1.77252  c2.83905,3.08371-2.00433,9.05084-8.55383,12.5976c-3.89325,2.10828-8.02151,3.27853-8.02161,3.27856  c-2.79312,0.79175-5.43024,1.16199-5.36728,0.95914c0.05386-0.17361,2.04977-0.65039,4.82413-1.73599  C53.21059,54.96861,56.36794,53.7331,59.40084,52.00926z"
     id="path6"
     style="fill:#b7e8f4;fill-opacity:1" /><path
     d="M30.70326,63.76814c3.81531,1.20862,9.17941,0.4441,11.7699,0.05734  c9.59174-1.43195,18.27951-5.35635,20.67499-6.45511c3.20501-1.47009,14.04452-6.68646,19.26583-13.41498  c5.61624-7.23743,0.43869-10.69141-0.68756-11.44275c-6.66641-4.44723-21.47354-1.81103-23.75033-1.38782  c1.82104-0.41675,18.40377-4.08356,25.93985,0.46252c1.06436,0.64209,6.70563,4.31784,0.67578,12.1232  c-5.78525,7.48877-17.97134,13.15762-20.63342,14.396c-3.26825,1.52036-12.03482,5.53641-21.74713,7.01328  c-2.41098,0.36664-8.57346,1.26071-12.80515-0.20285c-0.58997-0.20404-3.34006-1.22351-3.81863-3.75415  c-0.43991-2.32605,1.2439-4.85562,1.49133-4.91675c0.23508-0.05807-0.99747,2.15411-0.104,4.34436  C27.27123,61.31727,27.93926,62.89253,30.70326,63.76814z"
     id="path8"
     style="fill:#b7e8f4;fill-opacity:1" /><path
     d="M40.52016,48.05571c-4.81116,2.73462-9.87171,7.91232-7.49268,10.72867  c1.91528,2.26736,7.6456,1.81232,9.55948,1.66034c7.20935-0.57251,14.2821-3.51465,16.40668-4.41364  c6.56921-2.77963,10.60717-5.79755,12.15121-7.03391c7.33463-5.87289,6.72815-10.3855,7.05713-10.46494  c0.33142-0.08002,1.57785,4.3475-5.38208,10.40048c-4.83453,4.20456-11.24145,7.11954-12.96695,7.87918  c-2.39676,1.05518-10.30066,4.36917-18.58258,5.15625c-2.21588,0.2106-9.23822,0.87799-11.67844-1.77252  c-2.83905-3.08371,2.00433-9.05084,8.55383-12.5976c3.89325-2.10828,8.02151-3.27853,8.02161-3.27856  c2.79312-0.79175,5.43021-1.16199,5.36728-0.95914c-0.05389,0.17361-2.04977,0.65039-4.82413,1.73599  C46.71044,45.09636,43.55309,46.33186,40.52016,48.05571z"
     id="path10"
     style="fill:#b7e8f4;fill-opacity:1" /><path
     d="M69.21773,36.29683c-3.81531-1.20862-9.17941-0.44409-11.76989-0.05734  c-9.59174,1.43195-18.27948,5.35632-20.67496,6.45511c-3.20505,1.47009-14.04453,6.68646-19.26584,13.41498  c-5.61627,7.23743-0.43872,10.69141,0.68756,11.44275c6.66638,4.4472,21.47354,1.81104,23.75034,1.38782  c-1.82108,0.41675-18.40378,4.08356-25.93985-0.46252c-1.06439-0.64206-6.70563-4.31781-0.67581-12.12323  c5.78525-7.48877,17.97135-13.15759,20.63346-14.39597c3.26825-1.52036,12.03479-5.53641,21.7471-7.01328  c2.41101-0.36664,8.57345-1.26074,12.80517,0.20285c0.58994,0.20404,3.34006,1.22348,3.81863,3.75412  c0.43988,2.32608-1.2439,4.85562-1.49136,4.91675c-0.23508,0.05807,0.99747-2.15411,0.104-4.34436  C72.6498,38.74769,71.98174,37.17244,69.21773,36.29683z"
     id="path12"
     style="fill:#b7e8f4;fill-opacity:1" /></svg>